<svg xmlns="http://www.w3.org/2000/svg" xmlns:xlink="http://www.w3.org/1999/xlink" width="20.37" height="20" viewBox="0 0 20.37 20">
  <metadata><?xpacket begin="﻿" id="W5M0MpCehiHzreSzNTczkc9d"?>
<x:xmpmeta xmlns:x="adobe:ns:meta/" x:xmptk="Adobe XMP Core 5.6-c142 79.160924, 2017/07/13-01:06:39        ">
   <rdf:RDF xmlns:rdf="http://www.w3.org/1999/02/22-rdf-syntax-ns#">
      <rdf:Description rdf:about=""/>
   </rdf:RDF>
</x:xmpmeta>
                                                                                                    
                                                                                                    
                                                                                                    
                                                                                                    
                                                                                                    
                                                                                                    
                                                                                                    
                                                                                                    
                                                                                                    
                                                                                                    
                                                                                                    
                                                                                                    
                                                                                                    
                                                                                                    
                                                                                                    
                                                                                                    
                                                                                                    
                                                                                                    
                                                                                                    
                                                                                                    
                           
<?xpacket end="w"?></metadata>
<defs>
    <style>
      .cls-1 {
        fill: #fff;
        fill-rule: evenodd;
        filter: url(#filter);
      }
    </style>
    <filter id="filter" x="1368.63" y="2892" width="20.37" height="20" filterUnits="userSpaceOnUse">
      <feFlood result="flood" flood-color="#e4e4e4"/>
      <feComposite result="composite" operator="in" in2="SourceGraphic"/>
      <feBlend result="blend" in2="SourceGraphic"/>
    </filter>
  </defs>
  <path id="instagram" class="cls-1" d="M1386.45,2912h-15.27a2.522,2.522,0,0,1-2.54-2.5v-15a2.522,2.522,0,0,1,2.54-2.5h15.27a2.525,2.525,0,0,1,2.55,2.5v15A2.525,2.525,0,0,1,1386.45,2912Zm-7.63-13.88a3.964,3.964,0,0,0-3.58,2.25h0c-0.01.02-.01,0.03-0.02,0.05a1.861,1.861,0,0,0-.1.25c-0.02.04-.03,0.08-0.05,0.12a2.681,2.681,0,0,0-.07.27,0.564,0.564,0,0,0-.04.12c-0.02.1-.03,0.19-0.05,0.29,0,0.04-.01.08-0.01,0.12a2.728,2.728,0,0,0-.03.41,3.946,3.946,0,0,0,7.89,0,2.748,2.748,0,0,0-.02-0.41,0.5,0.5,0,0,0-.02-0.12,2.931,2.931,0,0,0-.05-0.29l-0.03-.12a2.759,2.759,0,0,0-.08-0.27c-0.01-.04-0.03-0.08-0.04-0.12-0.03-.09-0.07-0.17-0.1-0.25-0.01-.02-0.01-0.03-0.02-0.05h0A3.964,3.964,0,0,0,1378.82,2898.12Zm7.89-2.87a1.014,1.014,0,0,0-1.02-1h-2.04a1,1,0,0,0-1.01,1v2a1,1,0,0,0,1.01,1h2.04a1.014,1.014,0,0,0,1.02-1v-2Zm0,5.12h-1.88a5.884,5.884,0,0,1,.22,1.63,6.236,6.236,0,0,1-12.47,0,6.285,6.285,0,0,1,.22-1.63h-1.87v8.38a1.007,1.007,0,0,0,1.02,1h13.74a1.014,1.014,0,0,0,1.02-1v-8.38Z" transform="translate(-1368.63 -2892)"/>
</svg>
