<svg xmlns="http://www.w3.org/2000/svg" xmlns:xlink="http://www.w3.org/1999/xlink" width="20.38" height="16.21" viewBox="0 0 20.38 16.21">
  <metadata><?xpacket begin="﻿" id="W5M0MpCehiHzreSzNTczkc9d"?>
<x:xmpmeta xmlns:x="adobe:ns:meta/" x:xmptk="Adobe XMP Core 5.6-c142 79.160924, 2017/07/13-01:06:39        ">
   <rdf:RDF xmlns:rdf="http://www.w3.org/1999/02/22-rdf-syntax-ns#">
      <rdf:Description rdf:about=""/>
   </rdf:RDF>
</x:xmpmeta>
                                                                                                    
                                                                                                    
                                                                                                    
                                                                                                    
                                                                                                    
                                                                                                    
                                                                                                    
                                                                                                    
                                                                                                    
                                                                                                    
                                                                                                    
                                                                                                    
                                                                                                    
                                                                                                    
                                                                                                    
                                                                                                    
                                                                                                    
                                                                                                    
                                                                                                    
                                                                                                    
                           
<?xpacket end="w"?></metadata>
<defs>
    <style>
      .cls-1 {
        fill: #fff;
        fill-rule: evenodd;
        filter: url(#filter);
      }
    </style>
    <filter id="filter" x="1333" y="2893.88" width="20.38" height="16.21" filterUnits="userSpaceOnUse">
      <feFlood result="flood" flood-color="#e4e4e4"/>
      <feComposite result="composite" operator="in" in2="SourceGraphic"/>
      <feBlend result="blend" in2="SourceGraphic"/>
    </filter>
  </defs>
  <path id="twitter" class="cls-1" d="M1346.85,2893.88a4.334,4.334,0,0,1,3.3,1.28,6.743,6.743,0,0,0,2.14-.71c0.18-.09.35-0.18,0.52-0.27a4.078,4.078,0,0,1-1.35,1.92,1.89,1.89,0,0,1-.46.32v0.01a7.849,7.849,0,0,0,2.36-.63v0.01a6.541,6.541,0,0,1-1.41,1.6l-0.66.51a11.045,11.045,0,0,1-.19,2.63,11.537,11.537,0,0,1-8.18,9.07,12.594,12.594,0,0,1-5.91.24,15.1,15.1,0,0,1-2.46-.78,11.829,11.829,0,0,1-1.18-.6c-0.13-.08-0.25-0.15-0.37-0.22a7.337,7.337,0,0,0,1.34.05c0.41-.07.81-0.05,1.19-0.13a8.988,8.988,0,0,0,2.5-.89,4.544,4.544,0,0,0,1.14-.73,3.624,3.624,0,0,1-1.25-.22,4.164,4.164,0,0,1-2.65-2.62,4.441,4.441,0,0,0,1.87-.08,3.109,3.109,0,0,1-1.37-.54,3.944,3.944,0,0,1-1.96-3.52c0.14,0.07.28,0.14,0.42,0.2a3.914,3.914,0,0,0,.88.24,1.211,1.211,0,0,0,.57.05h-0.02c-0.21-.24-0.55-0.4-0.76-0.66a4.109,4.109,0,0,1-.94-3.72,4.647,4.647,0,0,1,.45-1.07c0,0.01.01,0.01,0.02,0.01a2.543,2.543,0,0,0,.37.43,7.29,7.29,0,0,0,1.25,1.17,12.489,12.489,0,0,0,5.1,2.43,9.018,9.018,0,0,0,1.88.24,3.714,3.714,0,0,1,.02-1.93,4.045,4.045,0,0,1,2.36-2.75,4.57,4.57,0,0,1,.93-0.28Z" transform="translate(-1333 -2893.88)"/>
</svg>
